<?xml version="1.0" encoding="UTF-8"?>
<svg version="1.1" xmlns="http://www.w3.org/2000/svg" width="1253" height="218">
<path d="M0 0 C1.25433458 3.76300374 1.10695422 7.27210909 1.0625 11.1875 C1.05798828 11.93708984 1.05347656 12.68667969 1.04882812 13.45898438 C1.03706354 15.30602383 1.01912865 17.15302213 1 19 C1.78375 18.34 2.5675 17.68 3.375 17 C6 15 6 15 8 15 C8 14.34 8 13.68 8 13 C19.65034221 4.1899602 31.04849572 -1.51006465 46 0 C58.09376494 2.12079066 68.72176467 9.38668097 75.8125 19.25 C76.21919922 19.80429688 76.62589844 20.35859375 77.04492188 20.9296875 C78.03591711 22.28210453 79.01881466 23.64044907 80 25 C80.94875 24.195625 81.8975 23.39125 82.875 22.5625 C83.52210938 22.01464844 84.16921875 21.46679688 84.8359375 20.90234375 C86.31537526 19.60182716 87.75731351 18.25772341 89.1640625 16.87890625 C93.97177972 12.24002191 98.82065797 8.69157904 104.6875 5.5625 C105.30496094 5.23266113 105.92242187 4.90282227 106.55859375 4.56298828 C117.6888673 -1.1240345 129.56507709 -1.6903853 141.4609375 2.01171875 C147.06275092 4.1921169 152.38887693 7.12129245 157 11 C157 11.66 157 12.32 157 13 C157.58910156 13.23074219 158.17820312 13.46148437 158.78515625 13.69921875 C167.30160725 18.70094394 171.32723495 32.6928531 173.71484375 41.6953125 C175.95235491 52.11525496 176.15019753 62.60484843 176.2109375 73.22265625 C176.22393861 74.57686647 176.23775867 75.93106904 176.25234985 77.28526306 C176.31330424 82.98380948 176.36798818 88.68232263 176.40136719 94.38110352 C176.42244044 97.88767149 176.45782328 101.39385757 176.50212479 104.90020561 C176.5229202 106.86137128 176.52830407 108.82268124 176.53329468 110.78395081 C176.58280647 122.0737574 176.58280647 122.0737574 181.61483765 131.83802795 C184.44999814 134.50293912 187.2555421 136.22488048 190.875 137.625 C194 139 194 139 195.125 141 C195 143 195 143 194.0625 144.75 C189.33666194 147.61414428 182.61234845 145.87149984 177.40625 144.93212891 C159.5842202 141.73154117 141.99570169 142.14910736 124.21484375 145.34375 C120.43880894 145.99011756 116.83907341 146.23504531 113 146 C111.0625 144.5 111.0625 144.5 110 143 C111.46548493 139.17162644 113.3146544 137.96945068 116.875 136.0625 C122.11062458 133.04484894 125.11376786 130.65212709 127.07658386 124.77822876 C127.99365416 121.02596448 128.25972279 117.83943687 128.2746582 113.98583984 C128.27976913 113.32294952 128.28488007 112.6600592 128.29014587 111.9770813 C128.30394214 109.8049391 128.30309165 107.63311808 128.30078125 105.4609375 C128.30467577 103.93266688 128.30901198 102.40439733 128.31376648 100.87612915 C128.32120892 97.6769866 128.32095338 94.47795442 128.31567383 91.27880859 C128.3099046 87.21423491 128.32675768 83.1501207 128.3500185 79.08562279 C128.36488457 75.92824742 128.36560985 72.77097916 128.36250877 69.61357498 C128.36301631 68.11712363 128.36814509 66.62066535 128.37832069 65.1242485 C128.45366575 52.48756374 128.20195017 38.69993806 119 29 C114.44113402 26.07544446 110.64145402 25.46949706 105.39453125 26.30078125 C100.72035887 27.66567009 96.91520513 30.16308088 93 33 C92.25492188 33.52851562 91.50984375 34.05703125 90.7421875 34.6015625 C88.68443147 36.30425474 87.28421595 37.65491001 86 40 C85.98199509 42.62871689 86.48699679 44.70693854 87.24594116 47.22026062 C89.67816527 56.18633701 89.15722627 65.92338998 89.2109375 75.13671875 C89.23182024 77.15288814 89.25272047 79.16905753 89.27463722 81.18521595 C89.32735243 86.1029882 89.37211543 91.02075111 89.40136719 95.9387207 C89.41831858 98.71667777 89.44304749 101.49436041 89.47622681 104.27217102 C89.50700541 106.87312252 89.52657152 109.47423824 89.53329468 112.07536316 C89.64442176 120.02534031 90.11787551 126.27019183 95.125 132.75 C98.80491638 135.62993456 102.66766562 137.31048398 107 139 C107 140.98 107 142.96 107 145 C100.09491178 147.30169607 91.72879576 145.14556545 84.6875 143.9375 C68.85967919 141.61350406 52.90172696 142.52879811 37.21484375 145.34375 C33.43880894 145.99011756 29.83907341 146.23504531 26 146 C24.0625 144.5 24.0625 144.5 23 143 C24.3984791 139.5912072 25.85006933 138.12606165 29 136.25 C29.70125 135.82203125 30.4025 135.3940625 31.125 134.953125 C33 134 33 134 35 134 C35 133.34 35 132.68 35 132 C35.66 132 36.32 132 37 132 C41.00813487 122.83854888 41.31223059 114.39962595 41.30078125 104.52734375 C41.3046788 103.11739478 41.30901561 101.70744696 41.31376648 100.29750061 C41.32120004 97.34811597 41.32096037 94.39885105 41.31567383 91.44946289 C41.30991259 87.71355275 41.32674234 83.97814381 41.3500185 80.24231625 C41.36493156 77.32934313 41.36560355 74.41648546 41.36250877 71.50348091 C41.3632562 69.47047352 41.37699772 67.43748375 41.39118958 65.40452576 C41.33089018 53.0674256 40.70789935 37.88442301 31.625 28.5625 C27.90478452 26.34808602 25.17623204 25.55043104 20.86328125 26.44140625 C15.5409484 28.02274453 11.19118488 30.36635806 7 34 C6.15256226 34.69777557 5.30512451 35.39555115 4.43200684 36.11447144 C1.44138201 39.66278932 1.30112496 42.20892077 1.38476562 46.64501953 C1.37644211 47.77540901 1.37644211 47.77540901 1.36795044 48.92863464 C1.35616488 51.41401294 1.38042953 53.89756221 1.40625 56.3828125 C1.40796256 58.12051307 1.40789394 59.85821623 1.40612793 61.59591675 C1.40778094 65.23932607 1.42646445 68.88212 1.45800781 72.52539062 C1.49750813 77.16870343 1.50207338 81.81120403 1.49454498 86.45465279 C1.49145569 90.04606407 1.50366783 93.63729687 1.52067566 97.2286644 C1.52765358 98.93887077 1.53083659 100.64909738 1.52998352 102.35931778 C1.243529 117.87826519 1.243529 117.87826519 7.0625 131.875 C11.11861575 134.80921139 15.45457269 136.92587297 20 139 C19.125 144.875 19.125 144.875 18 146 C12.95557453 146.22519757 8.36350936 145.82660015 3.40625 144.93212891 C-14.4157798 141.73154117 -32.00429831 142.14910736 -49.78515625 145.34375 C-59.40784531 146.99509668 -59.40784531 146.99509668 -63 144.75 C-64 143 -64 143 -63.83984375 141.0625 C-62.689003 138.23624923 -61.23971146 137.63786642 -58.5625 136.25 C-57.75941406 135.82203125 -56.95632812 135.3940625 -56.12890625 134.953125 C-54 134 -54 134 -52 134 C-52 133.34 -52 132.68 -52 132 C-51.34 132 -50.68 132 -50 132 C-49.31875294 130.00491933 -48.65572791 128.00361307 -48 126 C-47.65227539 125.05688965 -47.30455078 124.1137793 -46.94628906 123.14208984 C-45.31493909 117.34171322 -45.71533369 111.26201919 -45.734375 105.2890625 C-45.73302502 103.95299204 -45.73108172 102.61692206 -45.72857666 101.28085327 C-45.725639 98.48861995 -45.72987768 95.69651517 -45.73925781 92.90429688 C-45.75062941 89.34833807 -45.74409895 85.79268202 -45.73211288 82.23673439 C-45.7248384 79.47927629 -45.72720804 76.72188832 -45.73236847 73.96442795 C-45.734328 72.02312776 -45.72831541 70.0818247 -45.72210693 68.14053345 C-45.7667379 59.65943689 -46.00101677 51.55953684 -50.5625 44.125 C-52.03922382 41.67986086 -53.08893197 39.73320409 -54 37 C-55.31403276 36.29605388 -56.6520257 35.63654342 -58 35 C-62.76831683 31.78415842 -62.76831683 31.78415842 -63.8125 28.25 C-63.874375 27.5075 -63.93625 26.765 -64 26 C-60.66004893 22.99323139 -58.10839782 22.54312413 -53.6875 22.125 C-39.5784872 20.31390519 -25.14091309 14.92164217 -13.69921875 6.2578125 C-12 5 -12 5 -10 5 C-10 4.34 -10 3.68 -10 3 C-6.81719857 -0.18280143 -4.38555569 -0.29901516 0 0 Z " fill="#392F84" transform="translate(266,54)"/>
<path d="M0 0 C0.79921875 0.12246094 1.5984375 0.24492188 2.421875 0.37109375 C4.90231815 4.09175847 4.86568673 7.23649849 5.046875 11.55859375 C5.08554687 12.30818359 5.12421875 13.05777344 5.1640625 13.83007812 C5.25815716 15.67668574 5.34109819 17.52385565 5.421875 19.37109375 C6.18628906 18.73042969 6.95070313 18.08976562 7.73828125 17.4296875 C22.08357482 5.72849957 37.52254109 -1.36677603 56.421875 0.37109375 C71.36279189 2.60471429 84.25403807 9.99671428 93.46484375 22.04296875 C103.34221019 36.95379059 105.86928399 52.89501235 105.828125 70.484375 C105.83739779 71.87388811 105.84838174 73.26339071 105.86096191 74.65287781 C105.90331948 79.73214891 105.91496513 84.81139139 105.92718506 89.89080811 C105.93879311 94.21630375 105.96253913 98.54141573 106.00187683 102.86675072 C106.01525218 104.86614517 106.011112 106.86563273 106.00646973 108.86506653 C106.07536385 117.26064605 106.8553953 124.66588096 110.921875 132.12109375 C114.91537048 135.71523968 119.64124547 137.97253652 124.421875 140.37109375 C135.06233271 134.12177865 135.06233271 134.12177865 140.98893738 123.57972717 C141.55246493 120.70488859 141.57335997 117.96310491 141.59887695 115.03295898 C141.61171219 113.74739609 141.62454742 112.46183319 141.63777161 111.13731384 C141.64594318 109.73477569 141.65338611 108.33223312 141.66015625 106.9296875 C141.66423178 106.21893633 141.6683073 105.50818516 141.67250633 104.77589607 C141.69334289 101.00904765 141.70765133 97.24223532 141.71704102 93.4753418 C141.72806131 89.61106016 141.76241638 85.74736137 141.80221272 81.88328457 C141.82854307 78.88984717 141.83674757 75.89654476 141.84032249 72.90300179 C141.84515136 71.48022619 141.85665789 70.05745509 141.87536049 68.63479424 C142.02921566 56.14886463 140.11997367 45.73827693 131.421875 36.37109375 C128.83926919 33.92834024 126.18093184 31.61195209 123.421875 29.37109375 C123.83984375 26.99609375 123.83984375 26.99609375 125.421875 24.37109375 C128.43037742 23.20910082 131.55417674 22.83655913 134.734375 22.37109375 C143.1133709 20.92042418 150.64594269 18.90934866 158.421875 15.37109375 C159.45828125 14.90703125 160.4946875 14.44296875 161.5625 13.96484375 C167.45439022 11.18173983 172.55881685 8.03999099 177.58203125 3.88671875 C181.06692388 1.01593671 182.94884507 0.12930835 187.421875 0.37109375 C189.2212362 3.46742148 189.67203199 5.70565975 189.6734314 9.27128601 C189.68150566 10.74932961 189.68150566 10.74932961 189.68974304 12.25723267 C189.68561905 13.3320993 189.68149506 14.40696594 189.67724609 15.5144043 C189.68267677 17.21997749 189.68267677 17.21997749 189.68821716 18.96000671 C189.69511342 21.43067815 189.69761617 23.90136482 189.69626999 26.37204552 C189.69530562 30.28571763 189.70823772 34.19911443 189.72525024 38.11274719 C189.77221619 49.24074592 189.79620208 60.36873272 189.80273438 71.49682617 C189.80689837 78.30317263 189.83203549 85.10922595 189.86806107 91.91547585 C189.87784935 94.50652154 189.88019636 97.09760664 189.87488937 99.68866539 C189.86780299 103.3196902 189.88513623 106.94986589 189.90771484 110.58081055 C189.89954239 111.64555603 189.89136993 112.71030151 189.88294983 113.80731201 C189.96753947 121.47745563 191.55527638 127.44279194 196.109375 133.68359375 C199.03415121 135.8178899 202.10641205 137.00339538 205.49609375 138.24609375 C207.421875 139.37109375 207.421875 139.37109375 208.25 141.38671875 C208.421875 143.37109375 208.421875 143.37109375 207.484375 145.12109375 C202.83695647 147.93771104 196.34471097 146.2913652 191.23461914 145.30322266 C173.39764035 141.87787249 155.41158099 142.49333413 137.6015625 145.71484375 C127.92590452 147.37378009 127.92590452 147.37378009 123.421875 144.37109375 C122.761875 145.03109375 122.101875 145.69109375 121.421875 146.37109375 C116.36166659 146.68214937 111.75122406 146.19458769 106.77734375 145.30322266 C89.28122585 142.17639222 72.22328898 142.58697008 54.76953125 145.71484375 C44.56591529 147.44311389 44.56591529 147.44311389 40.421875 145.37109375 C40.109375 143.05859375 40.109375 143.05859375 40.421875 140.37109375 C42.421875 138.93359375 42.421875 138.93359375 45.421875 137.37109375 C51.25291885 133.58204969 54.83791477 130.43110575 56.97721863 123.59703064 C57.56264983 120.66637903 57.57350895 117.87015472 57.59887695 114.88110352 C57.61171219 113.5619545 57.62454742 112.24280548 57.63777161 110.88368225 C57.64594469 109.44329203 57.65338733 108.00289751 57.66015625 106.5625 C57.66423178 105.83218 57.6683073 105.10186001 57.67250633 104.3494091 C57.69335015 100.47651328 57.7076537 96.60365261 57.71704102 92.73071289 C57.72804394 88.76350183 57.76237648 84.7968612 57.80221272 80.8298502 C57.82859079 77.75226428 57.83675187 74.67480925 57.84032249 71.59712029 C57.84514164 70.1369235 57.85661911 68.67673066 57.87536049 67.21664619 C58.01697058 55.4433186 57.01558089 43.39132655 49.11328125 34.0234375 C44.41760296 29.43620444 39.54067782 26.61966357 32.90625 26.2421875 C23.89315088 26.7098483 16.3608508 29.64923669 9.421875 35.37109375 C8.73258911 35.90492172 8.04330322 36.43874969 7.33312988 36.98875427 C4.72405572 40.24091097 4.85973257 43.09177315 4.90429688 47.08618164 C4.8972876 47.85913574 4.89027832 48.63208984 4.88305664 49.4284668 C4.86545472 51.98392707 4.87711462 54.53827839 4.890625 57.09375 C4.88792878 58.8777233 4.88404528 60.66169517 4.87902832 62.44566345 C4.87312871 66.18909666 4.88170385 69.93214828 4.90039062 73.67553711 C4.92306498 78.44788177 4.9101338 83.21932084 4.88610077 87.99163151 C4.87155608 91.6799739 4.87629019 95.36810645 4.88661194 99.05645561 C4.88926139 100.81412299 4.88607289 102.57181007 4.87669373 104.32945442 C4.61157436 118.38742661 4.61157436 118.38742661 9.421875 131.37109375 C12.86700321 134.41139834 16.49335005 136.4763124 20.64453125 138.40234375 C22.421875 139.37109375 22.421875 139.37109375 23.359375 141.30859375 C23.421875 143.37109375 23.421875 143.37109375 22.2890625 145.01171875 C19.60229222 146.96777744 17.87931188 146.52631217 14.609375 146.18359375 C13.43375 146.06757813 12.258125 145.9515625 11.046875 145.83203125 C7.71362356 145.40819109 4.42179617 144.86878262 1.109375 144.30859375 C-14.68811638 141.98905108 -30.61067545 142.89360418 -46.265625 145.71484375 C-56.42045074 147.44993088 -56.42045074 147.44993088 -60.578125 145.37109375 C-60.828125 143.05859375 -60.828125 143.05859375 -60.578125 140.37109375 C-58.35268936 138.14565811 -55.86103391 136.98693781 -53.078125 135.49609375 C-48.05978236 132.66991791 -45.31278644 128.84194907 -43.578125 123.37109375 C-42.81158918 119.40827996 -42.44872495 115.64938376 -42.43286133 111.61621094 C-42.42648148 110.50775818 -42.42010162 109.39930542 -42.41352844 108.25726318 C-42.41241562 107.07279602 -42.4113028 105.88832886 -42.41015625 104.66796875 C-42.40682785 103.43500061 -42.40349945 102.20203247 -42.40007019 100.93170166 C-42.39501458 98.32605359 -42.39266144 95.72039906 -42.39282227 93.11474609 C-42.39064052 89.14930413 -42.3724829 85.18414261 -42.35351562 81.21875 C-42.3505804 78.68099053 -42.34859647 76.14322974 -42.34765625 73.60546875 C-42.34047073 72.42909851 -42.33328522 71.25272827 -42.32588196 70.04071045 C-42.35485561 59.4832988 -43.33745802 49.21775353 -49.578125 40.37109375 C-52.44721669 37.63767538 -55.33599916 35.15110175 -58.4453125 32.6953125 C-60.578125 30.37109375 -60.578125 30.37109375 -60.5859375 27.703125 C-59.578125 25.37109375 -59.578125 25.37109375 -56.578125 23.37109375 C-54.5041677 23.03593767 -52.41774412 22.77566606 -50.328125 22.55859375 C-34.34330199 20.39449463 -15.52953461 13.69286957 -4.21875 1.5859375 C-2.578125 0.37109375 -2.578125 0.37109375 0 0 Z " fill="#009846" transform="translate(774.578125,53.62890625)"/>
<path d="M0 0 C5.1225553 3.99578251 5.1225553 3.99578251 7 6 C7 6.66 7 7.32 7 8 C7.66 8 8.32 8 9 8 C17.7655989 22.87277847 20.28138909 36.47370147 20.30496025 53.69272614 C20.30869756 55.8891334 20.32561326 58.08511777 20.34571838 60.28143311 C20.40047251 66.51501583 20.43184385 72.74865384 20.45629883 78.98242188 C20.47225757 82.82308344 20.50254152 86.66343118 20.54106331 90.50392914 C20.5526175 91.95340374 20.55864281 93.40293449 20.55874443 94.85245514 C20.22781042 107.660565 20.22781042 107.660565 25.61521912 118.83428955 C29.30661797 122.3132737 33.27375669 124.26382899 38 126 C38.125 128.375 38.125 128.375 38 131 C36 133 36 133 34.07421875 133.046875 C33.28660156 132.94890625 32.49898437 132.8509375 31.6875 132.75 C30.77355469 132.64300781 29.85960937 132.53601563 28.91796875 132.42578125 C27.05946616 132.15459413 25.20603449 131.84355939 23.36328125 131.48046875 C6.93435896 128.3650251 -10.89348591 128.50515886 -27 133 C-27 128.05 -27 123.1 -27 118 C-27.66 118 -28.32 118 -29 118 C-29 118.66 -29 119.32 -29 120 C-47.12859114 131.50844306 -68.51829358 136.21342056 -89.91015625 132.28125 C-100.23718855 129.28580671 -109.270163 124.11568398 -115.32421875 115.0078125 C-118.96647759 108.03001136 -119.40198182 99.9631656 -117.26953125 92.4140625 C-115.20652158 87.47968019 -112.35457283 83.14907692 -109 79 C-108.34 79 -107.68 79 -107 79 C-107 78.34 -107 77.68 -107 77 C-93.11855732 66.04214091 -76.55415813 61.32449034 -59.79077148 56.63769531 C-52.19819254 54.47135942 -45.08819561 51.73819029 -37.94921875 48.3828125 C-35 47 -35 47 -32 46 C-32 45.34 -32 44.68 -32 44 C-31 43 -30 42 -29 41 C-25.87210131 31.61630392 -28.79639441 22.40885009 -32.375 13.625 C-35.37041582 8.78625137 -39.4772445 6.3062254 -44.75 4.46875 C-50.25030662 3.32285279 -57.16052723 4.09631634 -62 7 C-66.42784653 11.50353622 -68.14903128 14.58151752 -68.1875 20.875 C-68.20167969 21.92429688 -68.21585937 22.97359375 -68.23046875 24.0546875 C-68.00120932 26.98454525 -67.62804197 28.58260435 -66 31 C-62.07269376 33.40993792 -58.5575811 34.45743082 -54 35 C-54.11612038 41.38662102 -55.72701325 45.04858901 -59.83203125 49.94921875 C-67.15976697 56.88086065 -76.0651311 58.36103171 -85.79296875 58.2890625 C-92.9487522 57.64408324 -101.48736507 54.7486259 -106.51171875 49.38671875 C-111.70267034 41.8848452 -113.03829029 35.10160846 -112 26 C-108.73467055 13.44591784 -99.75369737 3.88168998 -89 -3 C-63.04613252 -17.71428279 -24.30304976 -18.51226679 0 0 Z M-39.875 68 C-40.97070312 68.55300781 -42.06640625 69.10601562 -43.1953125 69.67578125 C-50.54918525 73.46598818 -57.74143714 77.53181051 -64 83 C-64 83.66 -64 84.32 -64 85 C-64.66 85 -65.32 85 -66 85 C-69.2024455 89.90374467 -70.76764733 92.96848523 -70 99 C-68.22636526 103.66745985 -65.79118767 106.76362028 -62 110 C-56.1374677 112.54043066 -49.39332045 110.92961786 -43.55859375 109.046875 C-37.18352881 106.43845148 -31.38246317 102.30346729 -27 97 C-26.56099572 94.07613709 -26.41041103 91.75959055 -26.51171875 88.85546875 C-26.52233086 87.7007885 -26.52233086 87.7007885 -26.53315735 86.52278137 C-26.56103075 84.07667697 -26.62374863 81.63290616 -26.6875 79.1875 C-26.71259232 77.52412173 -26.73540387 75.86070738 -26.75585938 74.19726562 C-26.81083329 70.13061843 -26.89705073 66.06570411 -27 62 C-30.99306907 62 -36.39153007 66.20680468 -39.875 68 Z " fill="#392F84" transform="translate(577,67)"/>
<path d="M0 0 C1.15153226 0.95147793 2.29823937 1.90886231 3.4375 2.875 C4.283125 3.4525 5.12875 4.03 6 4.625 C14.56224236 12.52860833 19.21555349 22.51007014 19.6875 34.0625 C19.55917455 42.53197941 17.07548045 51.38108852 11.4375 57.875 C10.7775 57.875 10.1175 57.875 9.4375 57.875 C9.17453125 58.46667969 8.9115625 59.05835937 8.640625 59.66796875 C3.0590482 69.90690022 -10.93541207 74.97136083 -21.5 78.3125 C-28.12854001 79.92447199 -34.5642626 80.25635707 -41.375 80.3125 C-42.80670532 80.3278479 -42.80670532 80.3278479 -44.26733398 80.34350586 C-53.01143474 80.23504837 -60.76462619 78.45934745 -68.1875 73.6875 C-69.02539062 73.15769531 -69.86328125 72.62789063 -70.7265625 72.08203125 C-71.33242187 71.68371094 -71.93828125 71.28539062 -72.5625 70.875 C-69.22865663 83.1737733 -69.22865663 83.1737733 -62.5625 93.875 C-62.5625 94.535 -62.5625 95.195 -62.5625 95.875 C-61.9025 95.875 -61.2425 95.875 -60.5625 95.875 C-60.5625 96.535 -60.5625 97.195 -60.5625 97.875 C-59.68078125 98.31005859 -59.68078125 98.31005859 -58.78125 98.75390625 C-57.45556995 99.42374811 -56.13892945 100.1127771 -54.84375 100.83984375 C-40.00335244 108.94348189 -23.47319542 108.36015351 -7.5625 103.875 C1.18602942 101.18697389 8.35995536 96.48918729 15.1875 90.4375 C18.10363675 88.41240503 19.96005325 88.48861703 23.4375 88.875 C24.0975 89.205 24.7575 89.535 25.4375 89.875 C24.15733633 99.76070832 14.77228717 108.67970465 7.4375 114.875 C-12.27560204 129.48095295 -34.34261528 136.46146574 -58.94091797 133.59814453 C-75.01950901 131.19708402 -89.41633997 124.67957233 -101.5625 113.875 C-102.30886719 113.34519531 -103.05523438 112.81539063 -103.82421875 112.26953125 C-104.39785156 111.80933594 -104.97148438 111.34914063 -105.5625 110.875 C-105.5625 110.215 -105.5625 109.555 -105.5625 108.875 C-106.2225 108.875 -106.8825 108.875 -107.5625 108.875 C-120.68586814 94.07184074 -127.74724812 76.10212103 -126.9375 56.29296875 C-125.63536207 37.55439007 -116.65726975 22.6674374 -103.5625 9.875 C-102.84449219 9.13636719 -102.12648438 8.39773437 -101.38671875 7.63671875 C-76.75270051 -16.25503152 -27.87631995 -20.54318354 0 0 Z M-56.5625 13.875 C-56.5625 14.535 -56.5625 15.195 -56.5625 15.875 C-57.5525 16.205 -58.5425 16.535 -59.5625 16.875 C-67.81161327 27.42085014 -73.1359124 40.3998087 -72.5625 53.875 C-63.94179036 57.38172935 -54.64546457 58.87683123 -45.75 55.3125 C-36.32558382 50.37590105 -29.49156249 42.4082558 -25.6875 32.5 C-23.80802883 26.11203549 -23.60723183 19.69052724 -25.75 13.375 C-27.82993165 10.50612875 -29.39430014 9.43685134 -32.5625 7.875 C-42.32866232 6.48697949 -48.53346428 8.52230952 -56.5625 13.875 Z " fill="#ED7F1A" transform="translate(1219.5625,66.125)"/>
<path d="M0 0 C1.75 0.9375 1.75 0.9375 3.75 2.9375 C3.99050903 5.07620239 3.99050903 5.07620239 3.97705078 7.75439453 C3.97689972 8.75528107 3.97674866 9.7561676 3.97659302 10.78738403 C3.96627045 11.87075043 3.95594788 12.95411682 3.9453125 14.0703125 C3.9424826 15.17728485 3.93965271 16.2842572 3.93673706 17.42477417 C3.92551519 20.97079137 3.90040691 24.51655875 3.875 28.0625 C3.8649728 30.46223594 3.8558465 32.86197583 3.84765625 35.26171875 C3.82726836 41.15382022 3.78812299 47.04537948 3.75 52.9375 C19.92 52.9375 36.09 52.9375 52.75 52.9375 C52.75 58.5475 52.75 64.1575 52.75 69.9375 C36.58 69.9375 20.41 69.9375 3.75 69.9375 C3.84099062 85.6407604 3.84099062 85.6407604 3.95898438 101.34375 C4.01314661 107.75583652 4.0642626 114.16783865 4.09643555 120.58007812 C4.12259753 125.75440441 4.16308982 130.92844453 4.21318626 136.10259247 C4.22976821 138.0687273 4.24133613 140.03491153 4.24761391 142.00110626 C3.85114463 161.12641585 3.85114463 161.12641585 11.75 177.9375 C16.043696 180.799964 19.7122537 180.5239839 24.75 179.9375 C33.98464939 177.24548044 40.917829 169.18353064 46.75 161.9375 C49.70664519 160.4591774 52.49229737 160.87717217 55.75 160.9375 C56.85546875 162.65234375 56.85546875 162.65234375 57.75 164.9375 C55.34723897 175.22718653 45.42345338 183.89593255 36.8125 189.3125 C20.71194327 198.1270453 4.82167185 201.47079963 -13.19140625 196.9296875 C-18.77981173 195.11684587 -23.39690727 192.17289515 -28.25 188.9375 C-28.25 188.2775 -28.25 187.6175 -28.25 186.9375 C-29.24 186.6075 -30.23 186.2775 -31.25 185.9375 C-31.25 185.2775 -31.25 184.6175 -31.25 183.9375 C-31.91 183.9375 -32.57 183.9375 -33.25 183.9375 C-41.35235996 173.32995353 -43.42293291 161.18296461 -43.36352539 148.15649414 C-43.36367142 147.30691132 -43.36381744 146.45732849 -43.3639679 145.58200073 C-43.36327554 142.79552589 -43.35551507 140.0091193 -43.34765625 137.22265625 C-43.34578966 135.28209978 -43.34436689 133.34154283 -43.34336853 131.40098572 C-43.33956233 126.30962813 -43.32974832 121.21829937 -43.31866455 116.12695312 C-43.30840956 110.92513417 -43.30386217 105.72331054 -43.29882812 100.52148438 C-43.28812427 90.32680826 -43.27054292 80.13216104 -43.25 69.9375 C-50.51 69.9375 -57.77 69.9375 -65.25 69.9375 C-65.25 65.6475 -65.25 61.3575 -65.25 56.9375 C-64.28320312 56.71835937 -63.31640625 56.49921875 -62.3203125 56.2734375 C-54.07455467 54.30379445 -47.24064626 51.92497862 -40.25 46.9375 C-38.9196875 46.009375 -38.9196875 46.009375 -37.5625 45.0625 C-29.45768678 37.6148338 -23.04929314 28.50701645 -17.28515625 19.18359375 C-16.50241333 17.91962769 -16.50241333 17.91962769 -15.70385742 16.63012695 C-14.67157204 14.95136626 -13.6491456 13.26649269 -12.63793945 11.57495117 C-5.45195872 -0.1514433 -5.45195872 -0.1514433 0 0 Z " fill="#E11E23" transform="translate(1039.25,1.0625)"/>
<path d="M0 0 C4.55555556 1.55555556 4.55555556 1.55555556 6 3 C6.09326716 4.56547048 6.11745582 6.13512772 6.11352539 7.70336914 C6.11341209 9.20481224 6.11341209 9.20481224 6.11329651 10.73658752 C6.10813522 11.8251152 6.10297394 12.91364288 6.09765625 14.03515625 C6.0962413 15.14354355 6.09482635 16.25193085 6.09336853 17.39390564 C6.08775033 20.95013069 6.07519475 24.50629383 6.0625 28.0625 C6.05748734 30.46679597 6.05292403 32.87109292 6.04882812 35.27539062 C6.0386239 41.18363706 6.01905205 47.09174885 6 53 C22.17 53 38.34 53 55 53 C55 58.61 55 64.22 55 70 C38.83 70 22.66 70 6 70 C6.09099062 85.7032604 6.09099062 85.7032604 6.20898438 101.40625 C6.26314661 107.81833652 6.3142626 114.23033865 6.34643555 120.64257812 C6.37259753 125.81690441 6.41308982 130.99094453 6.46318626 136.16509247 C6.47976821 138.1312273 6.49133613 140.09741153 6.49761391 142.06360626 C6.10114463 161.18891585 6.10114463 161.18891585 14 178 C18.293696 180.862464 21.9622537 180.5864839 27 180 C36.23464939 177.30798044 43.167829 169.24603064 49 162 C51.95664519 160.5216774 54.74229737 160.93967217 58 161 C59.1328125 162.69140625 59.1328125 162.69140625 60 165 C58.28207659 170.44599431 54.9599093 175.9035421 51 180 C50.34 180 49.68 180 49 180 C49 180.66 49 181.32 49 182 C39.48210431 190.196971 29.16597693 195.22530351 17 198 C16.030625 198.226875 15.06125 198.45375 14.0625 198.6875 C-0.00161832 200.12261411 -12.30226105 198.2170558 -24 190 C-24.886875 189.4225 -25.77375 188.845 -26.6875 188.25 C-36.43408316 178.766838 -40.9240755 166.33987658 -41.12025452 152.85536194 C-41.12311904 151.30990703 -41.12057341 149.76443563 -41.11352539 148.21899414 C-41.11367142 147.36941132 -41.11381744 146.51982849 -41.1139679 145.64450073 C-41.11327554 142.85802589 -41.10551507 140.0716193 -41.09765625 137.28515625 C-41.09578966 135.34459978 -41.09436689 133.40404283 -41.09336853 131.46348572 C-41.08956233 126.37212813 -41.07974832 121.28079937 -41.06866455 116.18945312 C-41.05840956 110.98763417 -41.05386217 105.78581054 -41.04882812 100.58398438 C-41.03812427 90.38930826 -41.02054292 80.19466104 -41 70 C-48.26 70 -55.52 70 -63 70 C-63 65.71 -63 61.42 -63 57 C-62.03320312 56.78085937 -61.06640625 56.56171875 -60.0703125 56.3359375 C-51.82455467 54.36629445 -44.99064626 51.98747862 -38 47 C-36.6696875 46.071875 -36.6696875 46.071875 -35.3125 45.125 C-24.67872416 35.3534222 -16.77724856 22.63814159 -9.39916992 10.33007812 C-6.88051799 6.18109331 -4.47771017 2.23885509 0 0 Z " fill="#392F84" transform="translate(660,1)"/>
<path d="M0 0 C1.7993612 3.09632773 2.25015699 5.334566 2.2515564 8.90019226 C2.25693924 9.88555466 2.26232208 10.87091705 2.26786804 11.88613892 C2.26374405 12.96100555 2.25962006 14.03587219 2.25537109 15.14331055 C2.25899155 16.28035934 2.262612 17.41740814 2.26634216 18.58891296 C2.27323842 21.0595844 2.27574117 23.53027107 2.27439499 26.00095177 C2.27343062 29.91462388 2.28636272 33.82802068 2.30337524 37.74165344 C2.35034119 48.86965217 2.37432708 59.99763897 2.38085938 71.12573242 C2.38502337 77.93207888 2.41016049 84.7381322 2.44618607 91.5443821 C2.45597435 94.13542779 2.45832136 96.72651289 2.45301437 99.31757164 C2.44592799 102.94859645 2.46326123 106.57877214 2.48583984 110.2097168 C2.47766739 111.27446228 2.46949493 112.33920776 2.46107483 113.43621826 C2.54566447 121.10636188 4.13340138 127.07169819 8.6875 133.3125 C11.61227621 135.44679615 14.68453705 136.63230163 18.07421875 137.875 C20 139 20 139 20.828125 141.015625 C21 143 21 143 20.0625 144.75 C15.41508147 147.56661729 8.92283597 145.92027145 3.81274414 144.93212891 C-14.02423465 141.50677874 -32.01029401 142.12224038 -49.8203125 145.34375 C-53.5845631 145.99384102 -57.17197543 146.23407029 -61 146 C-62.9375 144.5 -62.9375 144.5 -64 143 C-62.57834963 139.39645842 -61.15047572 138.26627589 -57.6875 136.625 C-52.13711474 133.69810874 -48.96716729 130.85417587 -46.88925171 124.72210693 C-46.02645469 121.11073041 -45.73459386 118.02429399 -45.70947266 114.32128906 C-45.69671295 113.03595276 -45.68395325 111.75061646 -45.67080688 110.42633057 C-45.6677482 109.03943026 -45.66552099 107.65252791 -45.6640625 106.265625 C-45.65762344 104.82224398 -45.65089428 103.37886423 -45.64389038 101.93548584 C-45.63195288 98.91626973 -45.62820579 95.89716771 -45.62939453 92.87792969 C-45.62959727 89.03723143 -45.6023268 85.19727683 -45.56785011 81.3567543 C-45.54544618 78.3761672 -45.54156111 75.39575509 -45.54261398 72.41509247 C-45.54027704 71.00070388 -45.53156295 69.58630903 -45.51594925 68.1720047 C-45.39149332 55.73240557 -47.33628294 45.33015683 -56 36 C-58.58260581 33.55724649 -61.24094316 31.24085834 -64 29 C-63.58203125 26.625 -63.58203125 26.625 -62 24 C-58.99149758 22.83800707 -55.86769826 22.46546538 -52.6875 22 C-44.3085041 20.54933043 -36.77593231 18.53825491 -29 15 C-27.96359375 14.5359375 -26.9271875 14.071875 -25.859375 13.59375 C-19.96748478 10.81064608 -14.86305815 7.66889724 -9.83984375 3.515625 C-6.35495112 0.64484296 -4.47302993 -0.2417854 0 0 Z " fill="#009EE0" transform="translate(962,54)"/>
<path d="M0 0 C1.60009575 1.52426183 3.18467848 3.06504837 4.75 4.625 C5.38808594 5.23988281 6.02617187 5.85476562 6.68359375 6.48828125 C17.76469545 18.0136142 21.75 33.06477104 21.75 48.625 C-20.16 48.625 -62.07 48.625 -105.25 48.625 C-102.72886253 28.45590023 -97.95022335 11.83427365 -81.80078125 -1.37890625 C-57.14034638 -19.30320977 -23.71626416 -20.78303089 0 0 Z " fill="#E11E23" transform="translate(150.25,151.375)"/>
<path d="M0 0 C0 41.91 0 83.82 0 127 C-19.39069371 124.71874192 -36.25210357 119.82942572 -49.09765625 104.49609375 C-53.75300348 98.37888048 -57.26534911 92.17845858 -60 85 C-60.3196875 84.22011719 -60.639375 83.44023438 -60.96875 82.63671875 C-66.1804059 67.50843983 -63.99077075 49.42264551 -57.71484375 35.05859375 C-54.21756447 28.05429346 -49.50166645 22.52060506 -44 17 C-43.38511719 16.36191406 -42.77023438 15.72382812 -42.13671875 15.06640625 C-30.62463533 3.99804339 -15.5471931 0 0 0 Z " fill="#019FE1" transform="translate(176,26)"/>
<path d="M0 0 C17.9429518 0 31.61045358 5.15694714 44.68359375 17.55859375 C56.51107035 30.02431529 62.42845145 44.71794345 62.3125 61.8125 C62.30404053 63.12734375 62.30404053 63.12734375 62.29541016 64.46875 C61.97581408 81.60669388 55.05170095 95.80644037 43.0625 107.96484375 C30.69660456 119.35842079 16.60168687 124 0 124 C0 83.08 0 42.16 0 0 Z " fill="#ED7F1A" transform="translate(0,69)"/>
<path d="M0 0 C40.92 0 81.84 0 124 0 C124 17.26736933 118.45057004 32.16514539 106.3828125 44.78515625 C91.86942436 58.27546949 75.79781049 62.84685031 56.3984375 62.34765625 C39.15551334 61.50924986 25.67824444 53.2128708 14 41 C3.71421144 28.90902734 0 15.60432575 0 0 Z " fill="#009845" transform="translate(5,21)"/>
<path d="M0 0 C5.49871157 4.69255473 9.36254227 9.41032237 10.12109375 16.79296875 C10.21498829 25.30920323 9.90288505 31.19939244 3.9140625 37.48828125 C-2.98979106 43.8701043 -8.41652304 45.00386002 -17.76953125 44.828125 C-24.49214938 44.23360775 -28.38052862 41.66094097 -33.02734375 36.8984375 C-37.69206931 31.13424574 -39.56705576 24.91688796 -39.27734375 17.5234375 C-38.24462301 10.68166263 -35.23658965 4.90318307 -29.76953125 0.59765625 C-20.33949372 -5.29963588 -9.49879521 -6.74863069 0 0 Z " fill="#392F83" transform="translate(101.21484375,89.4765625)"/>
<path d="M0 0 C2.8125 2.25 2.8125 2.25 5 5 C5.4640625 5.52980469 5.928125 6.05960938 6.40625 6.60546875 C10.45076507 11.87457311 10.80746708 17.00194235 10.53515625 23.5234375 C9.51335549 30.16141324 6.84705825 34.81098824 1.515625 38.91015625 C-5.21756359 43.12337929 -11.05674026 44.91557822 -19 44 C-25.12090406 42.16554508 -32.03788052 39.79633947 -35.80078125 34.43359375 C-39.47189362 27.15777155 -41.77589404 21.06171833 -39.4140625 13 C-38.6875 11.1875 -38.6875 11.1875 -37 8 C-36.35804688 6.76443359 -36.35804688 6.76443359 -35.703125 5.50390625 C-33.76370173 2.65259819 -32.0402468 1.4515696 -29.0625 -0.25 C-28.20785156 -0.75015625 -27.35320313 -1.2503125 -26.47265625 -1.765625 C-17.75672233 -6.11670734 -8.31341625 -4.52784278 0 0 Z " fill="#019FE1" transform="translate(955,5)"/>
<path d="M0 0 C3 2 3 2 3.46875 3.98828125 C3.52890231 8.46210941 3.4986567 10.37011785 0.625 14 C-3.16414016 16.88696393 -5.21459746 17.47854025 -10 17 C-12.375 15 -12.375 15 -14 13 C-9.89962427 7.75027653 -5.47035213 3.79037089 0 0 Z " fill="#F8EEED" transform="translate(74,146)"/>
<path d="M0 0 C8.00826446 -0.78512397 8.00826446 -0.78512397 12 2.375 C14.88696393 6.16414016 15.47854025 8.21459746 15 13 C13 15.375 13 15.375 11 17 C6.27270263 13.39824962 1.7422654 9.36715757 -1 4 C-0.66015625 1.75390625 -0.66015625 1.75390625 0 0 Z " fill="#E9F7F9" transform="translate(124,121)"/>
<path d="M0 0 C6.17473811 3.76508421 11.98711066 8.26530618 15 15 C11.23124125 17.51250583 9.46849866 17.53016086 5 17 C1.78569675 15.09522771 -0.43594535 13.6755741 -1.6640625 10.02734375 C-2.28369934 6.17262623 -2.28875499 3.23118351 0 0 Z " fill="#F9F5EC" transform="translate(36,80)"/>
<path d="M0 0 C0 5.18037544 -1.67981088 6.42235974 -5.04296875 10.09375 C-7.52612578 12.51247381 -10.01403988 14.2521209 -13 16 C-15.35949043 12.3132962 -15.66740738 9.30106978 -15 5 C-10.78415004 -0.97138627 -6.81089643 -1.67285176 0 0 Z " fill="#F5F9F7" transform="translate(116,56)"/>
<path d="M0 0 C1.32 0.33 2.64 0.66 4 1 C4.125 3.375 4.125 3.375 4 6 C2 8 2 8 -1.8125 8.1875 C-4.97270751 8.11266813 -7.92318996 7.76920251 -11 7 C-10.67 6.01 -10.34 5.02 -10 4 C-7.03 4 -4.06 4 -1 4 C-0.67 2.68 -0.34 1.36 0 0 Z " fill="#148B4D" transform="translate(894,192)"/>
<path d="M0 0 C0 1.32 0 2.64 0 4 C-0.66 3.34 -1.32 2.68 -2 2 C-4.37124598 1.41511438 -4.37124598 1.41511438 -7 2 C-10.60429961 4.93373224 -12.60718945 7.56833005 -14 12 C-14.33 12 -14.66 12 -15 12 C-15.47632753 8.59766052 -15.74790766 6.07497431 -13.72265625 3.1640625 C-9.08160724 -1.3191277 -6.15158587 -1.51091583 0 0 Z " fill="#D2F8E5" transform="translate(116,56)"/>
<path d="M0 0 C0 0.99 0 1.98 0 3 C4.62 3 9.24 3 14 3 C14 3.33 14 3.66 14 4 C10.95827281 4.0271045 7.91679003 4.04688964 4.875 4.0625 C4.0190625 4.07087891 3.163125 4.07925781 2.28125 4.08789062 C-2.26678411 4.10538306 -6.52383164 3.93192358 -11 3 C-8.89427904 -1.21144191 -4.11694326 -0.07767817 0 0 Z " fill="#D38337" transform="translate(1168,196)"/>
<path d="M0 0 C2.75 0.25 2.75 0.25 5 1 C5.33 2.65 5.66 4.3 6 6 C1.38 6 -3.24 6 -8 6 C-6.68 5.34 -5.36 4.68 -4 4 C-3.360625 3.278125 -2.72125 2.55625 -2.0625 1.8125 C-1.381875 1.214375 -0.70125 0.61625 0 0 Z " fill="#19874C" transform="translate(808,74)"/>
<path d="M0 0 C-0.11458693 1.43836751 -0.24209116 2.87570966 -0.375 4.3125 C-0.44460937 5.11300781 -0.51421875 5.91351563 -0.5859375 6.73828125 C-1 9 -1 9 -3 12 C-3 11.34 -3 10.68 -3 10 C-3.66 10 -4.32 10 -5 10 C-5 7.36 -5 4.72 -5 2 C-1.125 0 -1.125 0 0 0 Z " fill="#1B894D" transform="translate(128,30)"/>
<path d="M0 0 C1.98 0 3.96 0 6 0 C6 1.65 6 3.3 6 5 C3.69 5.66 1.38 6.32 -1 7 C-0.67 4.69 -0.34 2.38 0 0 Z " fill="#E0822C" transform="translate(10,186)"/>
<path d="M0 0 C0 0.66 0 1.32 0 2 C2.31 2.33 4.62 2.66 7 3 C7 3.33 7 3.66 7 4 C0.13484138 4.26404456 -6.25846717 3.25841946 -13 2 C-13 1.67 -13 1.34 -13 1 C-11.39602723 0.83147753 -9.7918131 0.66525114 -8.1875 0.5 C-7.29417969 0.4071875 -6.40085937 0.314375 -5.48046875 0.21875 C-3 0 -3 0 0 0 Z " fill="#0D99C5" transform="translate(973,196)"/>
<path d="M0 0 C0 0.66 0 1.32 0 2 C-2.76452033 3.38226016 -5.0461363 3.09525387 -8.125 3.0625 C-9.22070312 3.05347656 -10.31640625 3.04445312 -11.4453125 3.03515625 C-12.70988281 3.01775391 -12.70988281 3.01775391 -14 3 C-13.1028125 2.566875 -13.1028125 2.566875 -12.1875 2.125 C-7.18345038 -0.44851123 -5.74472115 -1.08390965 0 0 Z " fill="#D52233" transform="translate(1050,197)"/>
<path d="M0 0 C1.32 0.33 2.64 0.66 4 1 C3.71653722 2.91789713 3.4228972 4.83429183 3.125 6.75 C2.96257812 7.81734375 2.80015625 8.8846875 2.6328125 9.984375 C2.06776118 12.67708871 1.36577086 14.63572439 0 17 C-1.32 16.67 -2.64 16.34 -4 16 C-3.34 15.525625 -2.68 15.05125 -2 14.5625 C0.91960746 10.82175295 0.3030578 7.57112188 0 3 C0 2.01 0 1.02 0 0 Z " fill="#D03C43" transform="translate(76,145)"/>
<path d="M0 0 C1.89777953 2.84666929 2.35804934 4.14111345 2.9375 7.375 C3.69645728 11.09692652 4.77415886 13.86358748 7 17 C6.01 17.66 5.02 18.32 4 19 C3.32506659 16.77332235 2.66036956 14.54354023 2 12.3125 C1.62875 11.07113281 1.2575 9.82976563 0.875 8.55078125 C0.12296543 5.4989981 -0.19034899 3.11101638 0 0 Z " fill="#148A4A" transform="translate(5,27)"/>
<path d="M0 0 C0.66 0.66 1.32 1.32 2 2 C-1.69486103 4.46324069 -3.63293092 4.38991688 -8 4 C-9.71875 2.48046875 -9.71875 2.48046875 -11 1 C-9.20991533 0.77848451 -7.41781838 0.57317787 -5.625 0.375 C-4.62726562 0.25898437 -3.62953125 0.14296875 -2.6015625 0.0234375 C-1.74304687 0.01570313 -0.88453125 0.00796875 0 0 Z " fill="#FDE3BE" transform="translate(49,93)"/>
<path d="M0 0 C0 0.66 0 1.32 0 2 C-1.4609375 3.2890625 -1.4609375 3.2890625 -3.375 4.625 C-4.00148438 5.07101563 -4.62796875 5.51703125 -5.2734375 5.9765625 C-7 7 -7 7 -9 7 C-8.25 4.0625 -8.25 4.0625 -7 1 C-4.50325648 -0.12756159 -2.76526273 0 0 0 Z " fill="#DA7B2B" transform="translate(41,177)"/>
<path d="M0 0 C0 0.99 0 1.98 0 3 C1.65 3 3.3 3 5 3 C1.81237635 5.12508244 -0.26512223 5.5020163 -4 6 C-4 4.35 -4 2.7 -4 1 C-2 0 -2 0 0 0 Z " fill="#DE802C" transform="translate(1200,138)"/>
<path d="M0 0 C0.33 0.99 0.66 1.98 1 3 C2.98 3 4.96 3 7 3 C7 3.66 7 4.32 7 5 C7.66 5.33 8.32 5.66 9 6 C2.47692308 6.36923077 2.47692308 6.36923077 0.0625 4.5 C-0.4634375 3.7575 -0.4634375 3.7575 -1 3 C-0.67 2.01 -0.34 1.02 0 0 Z " fill="#0E9BC2" transform="translate(899,194)"/>
<path d="M0 0 C0.66 0.33 1.32 0.66 2 1 C1.67 1.66 1.34 2.32 1 3 C3.64 3.33 6.28 3.66 9 4 C9 4.99 9 5.98 9 7 C7.68 7 6.36 7 5 7 C5 6.34 5 5.68 5 5 C3.02 5 1.04 5 -1 5 C-0.67 3.35 -0.34 1.7 0 0 Z " fill="#03A2D3" transform="translate(901,192)"/>
<path d="M0 0 C0.99 0.495 0.99 0.495 2 1 C4.204364 1.22950319 6.41392173 1.41075933 8.625 1.5625 C9.81351563 1.64628906 11.00203125 1.73007813 12.2265625 1.81640625 C13.59941406 1.90728516 13.59941406 1.90728516 15 2 C14.34 2.66 13.68 3.32 13 4 C10.8359375 3.9765625 10.8359375 3.9765625 8.375 3.625 C7.55773437 3.51414062 6.74046875 3.40328125 5.8984375 3.2890625 C5.27195312 3.19367188 4.64546875 3.09828125 4 3 C3.67 3.99 3.34 4.98 3 6 C0 2.25 0 2.25 0 0 Z " fill="#36A0C8" transform="translate(120,118)"/>
<path d="M0 0 C0 0.66 0 1.32 0 2 C-3.63 2.33 -7.26 2.66 -11 3 C-8.89427904 -1.21144191 -4.11694326 -0.07767817 0 0 Z " fill="#DE8229" transform="translate(1168,196)"/>
<path d="M0 0 C1.98 0 3.96 0 6 0 C1.375 4.875 1.375 4.875 -2 6 C-1.34 4.02 -0.68 2.04 0 0 Z " fill="#DE812D" transform="translate(1218,130)"/>
<path d="M0 0 C0.66 0.33 1.32 0.66 2 1 C0.375 3.0625 0.375 3.0625 -2 5 C-5.25 4.75 -5.25 4.75 -8 4 C-5.31143836 2.20762558 -3.0466145 1.01553817 0 0 Z " fill="#128E4B" transform="translate(744,71)"/>
<path d="M0 0 C2.97 0.33 5.94 0.66 9 1 C5.23312136 2.88343932 3.97041037 3.22057835 0 3 C0 2.01 0 1.02 0 0 Z " fill="#DB822E" transform="translate(1184,196)"/>
<path d="M0 0 C1.32 0.33 2.64 0.66 4 1 C3.67 1.99 3.34 2.98 3 4 C1.35 4 -0.3 4 -2 4 C-1.34 2.68 -0.68 1.36 0 0 Z " fill="#CF8544" transform="translate(12,188)"/>
<path d="M0 0 C0.66 0.33 1.32 0.66 2 1 C2 1.66 2 2.32 2 3 C-1.46153846 6 -1.46153846 6 -4 6 C-4 6.66 -4 7.32 -4 8 C-4.66 7.67 -5.32 7.34 -6 7 C-4.02 4.69 -2.04 2.38 0 0 Z " fill="#1796D6" transform="translate(915,181)"/>
<path d="M0 0 C2 3 2 3 3 6 C1.35 6 -0.3 6 -2 6 C-2 4.68 -2 3.36 -2 2 C-1.34 2 -0.68 2 0 2 C0 1.34 0 0.68 0 0 Z " fill="#D78821" transform="translate(1149,148)"/>
<path d="M0 0 C0.66 0.33 1.32 0.66 2 1 C0.35 2.32 -1.3 3.64 -3 5 C-4.32 4.34 -5.64 3.68 -7 3 C-4.69631264 1.93347808 -2.35981813 0.93578995 0 0 Z " fill="#0993C4" transform="translate(929,71)"/>
<path d="M0 0 C0.99 0.495 0.99 0.495 2 1 C2 1.66 2 2.32 2 3 C2.66 3 3.32 3 4 3 C4 3.66 4 4.32 4 5 C4.66 5.33 5.32 5.66 6 6 C4.35 6.33 2.7 6.66 1 7 C0.67 4.69 0.34 2.38 0 0 Z " fill="#D57F1F" transform="translate(1155,159)"/>
<path d="M0 0 C0 1.32 0 2.64 0 4 C-1.32 4.33 -2.64 4.66 -4 5 C-4.33 4.01 -4.66 3.02 -5 2 C-2 0 -2 0 0 0 Z " fill="#D4843B" transform="translate(1134,64)"/>
</svg>
